<?xml version="1.0" standalone="no"?>
<!DOCTYPE svg PUBLIC "-//W3C//DTD SVG 20010904//EN"
 "http://www.w3.org/TR/2001/REC-SVG-20010904/DTD/svg10.dtd">
<svg version="1.0" xmlns="http://www.w3.org/2000/svg"
 width="626.000000pt" height="455.000000pt" viewBox="0 0 626.000000 455.000000"
 preserveAspectRatio="xMidYMid meet">

<g transform="translate(0.000000,455.000000) scale(0.100000,-0.100000)"
fill="#000000" stroke="none">
<path d="M4745 3446 c-44 -12 -85 -25 -91 -29 -11 -6 -6 -39 28 -179 11 -47
33 -49 52 -5 15 38 72 67 130 67 44 0 97 -37 110 -78 l11 -33 40 62 c41 63 44
78 20 115 -19 30 -158 104 -192 103 -15 0 -64 -10 -108 -23z"/>
<path d="M2270 3439 c-14 -6 -52 -8 -90 -4 -86 7 -234 -31 -267 -70 -58 -67
-49 -164 21 -240 23 -25 47 -45 53 -45 7 0 9 20 6 59 -5 54 -4 60 17 71 32 17
123 7 180 -19 83 -38 155 -18 187 53 10 22 35 63 56 91 41 55 43 63 23 90 -11
16 -29 20 -88 22 -40 2 -84 -2 -98 -8z"/>
<path d="M3900 3433 c-8 -3 -40 -30 -70 -60 -30 -30 -66 -61 -81 -69 -16 -8
-32 -28 -39 -48 -8 -26 -20 -38 -49 -50 -39 -15 -57 -39 -44 -59 4 -7 7 -25 8
-42 0 -23 5 -31 23 -33 12 -2 22 -8 22 -13 0 -5 10 -9 23 -9 12 -1 33 -7 47
-15 32 -18 35 -18 54 0 12 12 13 22 6 41 -6 14 -10 47 -10 73 0 39 5 52 31 79
36 37 56 39 107 13 65 -33 76 -52 69 -123 -3 -34 -1 -71 5 -81 15 -28 70 -47
136 -47 l59 0 12 39 c6 22 25 51 41 64 20 17 32 38 36 64 7 46 -6 61 -75 83
-37 12 -47 21 -54 45 -19 66 -32 80 -106 118 -69 34 -114 44 -151 30z"/>
<path d="M825 3406 c-36 -16 -90 -67 -109 -105 -8 -15 -22 -56 -31 -91 -9 -36
-29 -85 -45 -110 -77 -121 -162 -330 -134 -330 5 0 35 21 68 48 45 36 65 61
86 108 26 58 31 63 79 79 62 20 74 37 106 140 31 104 55 128 125 126 36 0 52
4 56 14 10 26 23 16 35 -26 18 -57 -1 -140 -41 -191 -25 -31 -29 -41 -20 -58
14 -26 42 -40 78 -40 l29 0 0 73 c0 39 1 106 3 147 4 90 -7 116 -79 183 -49
46 -52 47 -113 47 -35 -1 -77 -7 -93 -14z"/>
<path d="M4713 3012 c-32 -13 -85 -60 -208 -189 -91 -95 -165 -174 -165 -176
0 -2 -5 -28 -10 -59 l-11 -56 83 -132 82 -132 22 43 21 43 -34 98 c-19 54 -31
103 -28 108 3 6 16 15 27 21 20 11 21 9 15 -25 l-6 -36 324 0 323 0 -11 43
c-6 27 -27 61 -58 94 -82 91 -129 198 -129 295 0 41 -3 50 -22 57 -16 6 -28 4
-39 -5 -24 -22 -70 -18 -76 6 -7 25 -41 26 -100 2z"/>
<path d="M2120 2995 c-9 -25 -14 -27 -47 -22 -20 4 -39 11 -43 17 -5 7 -22 7
-59 -1 -41 -8 -69 -25 -132 -77 l-80 -67 -95 -194 -95 -193 77 -90 76 -90 -6
-69 c-6 -57 -3 -79 15 -129 18 -49 21 -72 15 -122 -5 -49 -3 -59 6 -50 7 7 15
12 19 12 3 0 12 -56 19 -125 8 -69 16 -125 19 -125 6 0 62 454 61 494 0 11 -7
27 -16 37 -12 14 -13 22 -4 38 6 11 16 20 22 18 6 -1 15 16 20 38 10 47 41 74
84 75 24 0 62 -22 75 -43 1 -1 7 -108 13 -238 15 -304 16 -304 196 -466 69
-61 126 -110 128 -108 2 2 -29 67 -68 145 -57 114 -70 148 -65 171 14 63 85
78 133 29 17 -16 32 -30 34 -30 2 0 3 22 2 48 0 33 -7 57 -20 74 -159 204
-236 326 -284 450 -74 190 -55 380 52 542 21 32 37 60 36 62 -2 1 -20 5 -40 9
-35 7 -39 5 -48 -20z"/>
<path d="M886 2759 c-147 -34 -287 -150 -354 -290 -50 -105 -55 -139 -33 -209
l17 -55 6 70 c10 108 7 105 102 105 l81 0 0 -140 0 -140 -70 0 c-73 0 -103
-10 -91 -29 5 -7 42 -11 97 -11 77 0 90 -3 95 -17 15 -56 95 -192 142 -243 61
-68 53 -76 -39 -40 -102 41 -198 124 -251 218 -23 39 -33 50 -43 42 -6 -5 -15
-7 -18 -3 -4 3 -7 -1 -7 -9 0 -9 18 -43 40 -76 141 -211 388 -298 634 -222 67
21 68 22 50 41 -17 17 -22 17 -59 4 -64 -23 -72 -18 -36 19 30 31 32 36 19 55
-14 20 -16 19 -63 -29 -27 -28 -53 -50 -57 -50 -4 0 -8 70 -8 155 l0 155 30 0
c19 0 33 7 40 19 9 18 6 20 -27 23 l-38 3 0 135 0 135 114 3 c64 1 119 -2 124
-7 5 -5 12 -50 15 -99 4 -77 7 -91 23 -95 15 -4 19 1 21 21 2 49 2 87 -2 132
l-5 45 81 3 c96 3 93 7 101 -116 6 -77 7 -83 27 -80 19 3 21 9 19 72 -8 233
-175 442 -398 501 -65 16 -216 19 -279 4z m-14 -94 c-51 -54 -102 -134 -128
-197 l-19 -48 -82 0 c-46 0 -83 4 -83 8 0 18 79 128 116 163 22 20 59 49 83
64 44 27 142 66 150 59 2 -2 -15 -24 -37 -49z m126 -106 l-3 -134 -107 -3
c-76 -2 -108 1 -108 9 0 50 190 293 212 271 5 -5 7 -69 6 -143z m127 89 c59
-61 125 -159 140 -205 6 -23 6 -23 -109 -23 l-116 0 0 145 c0 107 3 145 12
145 7 0 40 -28 73 -62z m121 25 c69 -34 144 -100 188 -167 60 -90 61 -87 -34
-84 l-82 3 -13 38 c-18 54 -73 140 -122 194 -24 25 -43 48 -43 51 0 9 56 -10
106 -35z m-251 -433 l0 -135 -109 -3 c-68 -2 -113 1 -120 8 -15 15 -20 208 -7
243 l11 28 112 -3 113 -3 0 -135z m5 -328 c3 -79 2 -146 -2 -148 -32 -20 -181
172 -212 274 l-8 23 109 -3 108 -3 5 -143z"/>
<path d="M3612 1997 c-36 -143 -55 -363 -28 -316 14 25 130 419 124 424 -2 1
-17 5 -34 8 l-32 6 -30 -122z"/>
<path d="M4032 2103 c-63 -4 -63 -4 -90 -48 -18 -31 -32 -43 -46 -42 -24 2
-29 -15 -56 -222 -22 -165 -23 -233 -1 -113 7 40 14 72 16 70 1 -2 8 -167 14
-368 7 -201 14 -377 17 -392 6 -28 7 -28 80 -28 51 0 76 4 79 13 2 6 8 102 14
212 10 182 15 220 60 420 l49 220 -6 140 -7 140 -30 1 c-16 0 -58 -1 -93 -3z"/>
<path d="M5196 1896 c-73 -14 -91 -39 -25 -35 l44 4 3 -85 c2 -100 9 -133 24
-128 7 3 11 42 12 114 1 105 2 109 24 112 12 2 22 10 22 18 0 16 -21 16 -104
0z"/>
<path d="M5334 1895 c-8 -20 0 -242 9 -251 3 -4 31 -3 62 1 40 5 55 11 55 22
0 13 -8 15 -45 10 -32 -5 -45 -3 -46 6 0 6 -3 24 -5 40 -4 24 -2 27 26 27 39
0 41 27 3 32 -26 3 -28 7 -31 51 l-3 47 46 0 c66 0 54 24 -13 28 -41 2 -54 -1
-58 -13z"/>
<path d="M4468 1892 c-22 -4 -22 0 3 -141 24 -125 35 -149 65 -133 72 39 95
130 51 204 -30 52 -78 80 -119 70z m76 -63 c31 -37 40 -69 32 -111 -6 -31 -32
-68 -46 -68 -4 0 -15 39 -24 88 -10 48 -19 95 -22 105 -9 29 31 20 60 -14z"/>
<path d="M5061 1868 c-15 -47 -41 -175 -41 -204 0 -15 6 -24 15 -24 9 0 15 9
15 23 0 49 11 67 41 67 25 0 30 -5 39 -41 7 -24 16 -39 23 -36 16 6 12 36 -23
150 -33 104 -51 121 -69 65z m43 -85 c6 -19 3 -23 -13 -23 -22 0 -25 10 -14
49 6 25 14 18 27 -26z"/>
<path d="M4847 1883 c-9 -8 -9 -180 -1 -222 4 -18 12 -30 18 -28 7 2 10 34 8
93 -3 82 -2 88 13 69 9 -11 28 -52 43 -92 41 -110 53 -98 50 52 -3 135 -20
170 -28 60 l-5 -65 -28 54 c-30 58 -59 90 -70 79z"/>
<path d="M4665 1855 c-47 -46 -28 -183 30 -221 33 -22 74 -10 92 26 29 58 8
171 -38 204 -33 22 -56 20 -84 -9z m72 -13 c33 -21 44 -131 18 -169 -33 -47
-85 8 -85 89 0 64 32 102 67 80z"/>
<path d="M595 1633 c3 -16 12 -68 21 -117 13 -72 15 -145 12 -360 l-3 -271 36
-3 c34 -3 36 -2 46 40 6 24 34 129 62 233 47 172 81 372 81 478 l0 27 -130 0
-129 0 4 -27z"/>
<path d="M880 1644 c0 -4 14 -58 30 -120 17 -62 48 -209 70 -326 70 -378 59
-341 94 -334 16 4 32 8 34 11 4 4 41 766 37 772 0 1 -30 -2 -65 -7 -36 -5 -81
-7 -100 -4 -19 3 -50 7 -67 10 -18 3 -33 2 -33 -2z"/>
<path d="M1825 1514 c4 -22 -7 -164 -24 -315 -17 -151 -33 -308 -36 -349 l-5
-75 44 -28 c43 -27 46 -28 70 -11 31 20 32 24 6 57 l-21 26 79 213 c44 117 83
223 87 236 6 20 -6 37 -77 110 -46 48 -94 107 -106 132 l-22 45 5 -41z"/>
<path d="M3776 1360 c-17 -50 -66 -108 -120 -144 -61 -40 -60 -35 -32 -176
l11 -55 74 -3 c41 -2 77 1 81 5 4 4 4 96 1 203 -4 132 -9 187 -15 170z"/>
<path d="M4564 1203 c4 -76 12 -194 17 -261 l11 -124 -25 -26 c-25 -26 -25
-27 -7 -49 l18 -23 46 21 c33 14 46 26 46 41 0 19 78 429 99 521 l9 37 -110 0
-110 0 6 -137z"/>
<path d="M4920 1330 c0 -25 89 -595 93 -595 1 0 19 -9 41 -18 36 -17 40 -17
57 -1 25 22 24 32 -4 54 l-23 18 17 209 c10 114 20 238 23 276 l5 67 -105 0
c-60 0 -104 -4 -104 -10z"/>
<path d="M2192 1013 c4 -60 10 -136 13 -171 l7 -62 48 -25 47 -24 24 25 23 24
-28 28 c-26 29 -27 29 -15 101 l11 72 -64 67 c-34 37 -65 68 -68 70 -3 1 -2
-46 2 -105z"/>
<path d="M3735 861 c-14 -47 -40 -62 -60 -36 -14 19 -15 16 -13 -35 3 -54 4
-55 33 -55 39 0 57 37 53 107 -3 53 -3 53 -13 19z"/>
<path d="M645 851 c-23 -5 -31 -12 -33 -33 -3 -24 3 -30 57 -58 72 -36 110
-39 113 -10 0 11 1 24 2 30 1 10 -92 81 -103 79 -3 -1 -19 -4 -36 -8z"/>
<path d="M3897 839 c-9 -34 -8 -92 2 -107 13 -21 54 -10 68 18 7 14 13 43 13
64 0 39 0 39 -21 20 -20 -18 -21 -18 -38 5 l-18 24 -6 -24z"/>
<path d="M1058 833 c-12 -3 -18 -14 -18 -33 0 -32 6 -34 113 -43 44 -4 47 -3
47 19 0 40 -82 73 -142 57z"/>
</g>
</svg>
